<?xml version="1.0" encoding="UTF-8" standalone="no"?>
<!DOCTYPE svg PUBLIC "-//W3C//DTD SVG 1.1//EN"
 "http://www.w3.org/Graphics/SVG/1.1/DTD/svg11.dtd">
<!-- Generated by graphviz version 2.42.1 (0)
 -->
<!-- Title: main Pages: 1 -->
<svg width="301pt" height="66pt"
 viewBox="0.00 0.00 301.00 66.00" xmlns="http://www.w3.org/2000/svg" xmlns:xlink="http://www.w3.org/1999/xlink">
<g id="graph0" class="graph" transform="scale(1 1) rotate(0) translate(4 62)">
<title>main</title>
<polygon fill="white" stroke="transparent" points="-4,4 -4,-62 297,-62 297,4 -4,4"/>
<!-- Node1 -->
<g id="node1" class="node">
<title>Node1</title>
<g id="a_node1"><a xlink:title=" ">
<polygon fill="#bfbfbf" stroke="black" points="0,-19.5 0,-38.5 38,-38.5 38,-19.5 0,-19.5"/>
<text text-anchor="middle" x="19" y="-26.5" font-family="Helvetica,sans-Serif" font-size="10.00">main</text>
</a>
</g>
</g>
<!-- Node2 -->
<g id="node2" class="node">
<title>Node2</title>
<g id="a_node2"><a xlink:href="ch8_8cpp.html#aa0af753647d0f1a7eaf36fe291e37a3e" target="_top" xlink:title=" ">
<polygon fill="white" stroke="black" points="74,-19.5 74,-38.5 145,-38.5 145,-19.5 74,-19.5"/>
<text text-anchor="middle" x="109.5" y="-26.5" font-family="Helvetica,sans-Serif" font-size="10.00">test_random</text>
</a>
</g>
</g>
<!-- Node1&#45;&gt;Node2 -->
<g id="edge1" class="edge">
<title>Node1&#45;&gt;Node2</title>
<path fill="none" stroke="midnightblue" d="M38.34,-29C45.77,-29 54.7,-29 63.67,-29"/>
<polygon fill="midnightblue" stroke="midnightblue" points="63.73,-32.5 73.73,-29 63.73,-25.5 63.73,-32.5"/>
</g>
<!-- Node3 -->
<g id="node3" class="node">
<title>Node3</title>
<g id="a_node3"><a xlink:href="classList.html#adeb32e56d6a299a90763cd413066259b" target="_top" xlink:title=" ">
<polygon fill="white" stroke="black" points="181,-38.5 181,-57.5 293,-57.5 293,-38.5 181,-38.5"/>
<text text-anchor="middle" x="237" y="-45.5" font-family="Helvetica,sans-Serif" font-size="10.00">List&lt; Record &gt;::insert</text>
</a>
</g>
</g>
<!-- Node2&#45;&gt;Node3 -->
<g id="edge2" class="edge">
<title>Node2&#45;&gt;Node3</title>
<path fill="none" stroke="midnightblue" d="M145.13,-34.24C153.14,-35.46 161.92,-36.79 170.77,-38.12"/>
<polygon fill="midnightblue" stroke="midnightblue" points="170.34,-41.6 180.75,-39.64 171.39,-34.68 170.34,-41.6"/>
</g>
<!-- Node4 -->
<g id="node4" class="node">
<title>Node4</title>
<g id="a_node4"><a xlink:href="classList.html#ae0534dfad852188e590f1da4c86da86e" target="_top" xlink:title=" ">
<polygon fill="white" stroke="black" points="184,-0.5 184,-19.5 290,-19.5 290,-0.5 184,-0.5"/>
<text text-anchor="middle" x="237" y="-7.5" font-family="Helvetica,sans-Serif" font-size="10.00">List&lt; Record &gt;::print</text>
</a>
</g>
</g>
<!-- Node2&#45;&gt;Node4 -->
<g id="edge3" class="edge">
<title>Node2&#45;&gt;Node4</title>
<path fill="none" stroke="midnightblue" d="M145.13,-23.76C153.96,-22.42 163.72,-20.94 173.49,-19.46"/>
<polygon fill="midnightblue" stroke="midnightblue" points="174.25,-22.89 183.61,-17.93 173.2,-15.97 174.25,-22.89"/>
</g>
</g>
</svg>
