<?xml version="1.0" encoding="UTF-8" standalone="no"?>
<!DOCTYPE svg PUBLIC "-//W3C//DTD SVG 1.1//EN"
 "http://www.w3.org/Graphics/SVG/1.1/DTD/svg11.dtd">
<!-- Generated by graphviz version 2.42.1 (0)
 -->
<!-- Title: Sortable_list&lt; Record &gt; Pages: 1 -->
<svg width="149pt" height="475pt"
 viewBox="0.00 0.00 149.00 475.00" xmlns="http://www.w3.org/2000/svg" xmlns:xlink="http://www.w3.org/1999/xlink">
<g id="graph0" class="graph" transform="scale(1 1) rotate(0) translate(4 471)">
<title>Sortable_list&lt; Record &gt;</title>
<polygon fill="white" stroke="transparent" points="-4,4 -4,-471 145,-471 145,4 -4,4"/>
<!-- Node1 -->
<g id="node1" class="node">
<title>Node1</title>
<g id="a_node1"><a xlink:title=" ">
<polygon fill="#bfbfbf" stroke="black" points="21,-0.5 21,-156.5 141,-156.5 141,-0.5 21,-0.5"/>
<text text-anchor="middle" x="81" y="-144.5" font-family="Helvetica,sans-Serif" font-size="10.00">Sortable_list&lt; Record &gt;</text>
<polyline fill="none" stroke="black" points="21,-137.5 141,-137.5 "/>
<text text-anchor="middle" x="81" y="-125.5" font-family="Helvetica,sans-Serif" font-size="10.00"> </text>
<polyline fill="none" stroke="black" points="21,-118.5 141,-118.5 "/>
<text text-anchor="start" x="29" y="-106.5" font-family="Helvetica,sans-Serif" font-size="10.00">+ insertion_sort()</text>
<text text-anchor="start" x="29" y="-95.5" font-family="Helvetica,sans-Serif" font-size="10.00">+ selection_sort()</text>
<text text-anchor="start" x="29" y="-84.5" font-family="Helvetica,sans-Serif" font-size="10.00">+ quick_sort()</text>
<text text-anchor="start" x="29" y="-73.5" font-family="Helvetica,sans-Serif" font-size="10.00">+ heap_sort()</text>
<text text-anchor="start" x="29" y="-62.5" font-family="Helvetica,sans-Serif" font-size="10.00">&#45; recursive_quick_sort()</text>
<text text-anchor="start" x="29" y="-51.5" font-family="Helvetica,sans-Serif" font-size="10.00">&#45; partition()</text>
<text text-anchor="start" x="29" y="-40.5" font-family="Helvetica,sans-Serif" font-size="10.00">&#45; insert_heap()</text>
<text text-anchor="start" x="29" y="-29.5" font-family="Helvetica,sans-Serif" font-size="10.00">&#45; build_heap()</text>
<text text-anchor="start" x="29" y="-18.5" font-family="Helvetica,sans-Serif" font-size="10.00">&#45; max_key()</text>
<text text-anchor="start" x="29" y="-7.5" font-family="Helvetica,sans-Serif" font-size="10.00">&#45; swap()</text>
</a>
</g>
</g>
<!-- Node2 -->
<g id="node2" class="node">
<title>Node2</title>
<g id="a_node2"><a xlink:href="classList.html" target="_top" xlink:title=" ">
<polygon fill="white" stroke="black" points="40.5,-194.5 40.5,-361.5 121.5,-361.5 121.5,-194.5 40.5,-194.5"/>
<text text-anchor="middle" x="81" y="-349.5" font-family="Helvetica,sans-Serif" font-size="10.00">List&lt; Record &gt;</text>
<polyline fill="none" stroke="black" points="40.5,-342.5 121.5,-342.5 "/>
<text text-anchor="middle" x="81" y="-330.5" font-family="Helvetica,sans-Serif" font-size="10.00"> </text>
<polyline fill="none" stroke="black" points="40.5,-323.5 121.5,-323.5 "/>
<text text-anchor="start" x="48.5" y="-311.5" font-family="Helvetica,sans-Serif" font-size="10.00">+ ~List()</text>
<text text-anchor="start" x="48.5" y="-300.5" font-family="Helvetica,sans-Serif" font-size="10.00">+ List()</text>
<text text-anchor="start" x="48.5" y="-289.5" font-family="Helvetica,sans-Serif" font-size="10.00">+ List()</text>
<text text-anchor="start" x="48.5" y="-278.5" font-family="Helvetica,sans-Serif" font-size="10.00">+ full()</text>
<text text-anchor="start" x="48.5" y="-267.5" font-family="Helvetica,sans-Serif" font-size="10.00">+ size()</text>
<text text-anchor="start" x="48.5" y="-256.5" font-family="Helvetica,sans-Serif" font-size="10.00">+ print()</text>
<text text-anchor="start" x="48.5" y="-245.5" font-family="Helvetica,sans-Serif" font-size="10.00">+ traverse()</text>
<text text-anchor="start" x="48.5" y="-234.5" font-family="Helvetica,sans-Serif" font-size="10.00">+ retrieve()</text>
<text text-anchor="start" x="48.5" y="-223.5" font-family="Helvetica,sans-Serif" font-size="10.00">+ replace()</text>
<text text-anchor="start" x="48.5" y="-212.5" font-family="Helvetica,sans-Serif" font-size="10.00">+ remove()</text>
<text text-anchor="start" x="48.5" y="-201.5" font-family="Helvetica,sans-Serif" font-size="10.00">+ insert()</text>
</a>
</g>
</g>
<!-- Node2&#45;&gt;Node1 -->
<g id="edge1" class="edge">
<title>Node2&#45;&gt;Node1</title>
<path fill="none" stroke="midnightblue" d="M81,-184.09C81,-174.93 81,-165.71 81,-156.73"/>
<polygon fill="none" stroke="midnightblue" points="77.5,-184.39 81,-194.39 84.5,-184.39 77.5,-184.39"/>
</g>
<!-- Node3 -->
<g id="node3" class="node">
<title>Node3</title>
<g id="a_node3"><a xlink:href="classRecord.html" target="_top" xlink:title=" ">
<polygon fill="white" stroke="black" points="0,-409.5 0,-466.5 86,-466.5 86,-409.5 0,-409.5"/>
<text text-anchor="middle" x="43" y="-454.5" font-family="Helvetica,sans-Serif" font-size="10.00">Record</text>
<polyline fill="none" stroke="black" points="0,-447.5 86,-447.5 "/>
<text text-anchor="middle" x="43" y="-435.5" font-family="Helvetica,sans-Serif" font-size="10.00"> </text>
<polyline fill="none" stroke="black" points="0,-428.5 86,-428.5 "/>
<text text-anchor="start" x="8" y="-416.5" font-family="Helvetica,sans-Serif" font-size="10.00">+ operator Key()</text>
</a>
</g>
</g>
<!-- Node3&#45;&gt;Node2 -->
<g id="edge2" class="edge">
<title>Node3&#45;&gt;Node2</title>
<path fill="none" stroke="#404040" d="M49.62,-409.48C52.14,-399.02 55.16,-386.42 58.34,-373.23"/>
<polygon fill="none" stroke="#404040" points="58.34,-373.2 55.86,-366.43 61.15,-361.54 63.64,-368.3 58.34,-373.2"/>
<text text-anchor="middle" x="72.5" y="-383" font-family="Helvetica,sans-Serif" font-size="10.00"> #entry</text>
</g>
<!-- Node4 -->
<g id="node4" class="node">
<title>Node4</title>
<g id="a_node4"><a xlink:href="classint.html" target="_top" xlink:title=" ">
<polygon fill="white" stroke="black" points="104.5,-409.5 104.5,-466.5 133.5,-466.5 133.5,-409.5 104.5,-409.5"/>
<text text-anchor="middle" x="119" y="-454.5" font-family="Helvetica,sans-Serif" font-size="10.00">int</text>
<polyline fill="none" stroke="black" points="104.5,-447.5 133.5,-447.5 "/>
<text text-anchor="middle" x="119" y="-435.5" font-family="Helvetica,sans-Serif" font-size="10.00"> </text>
<polyline fill="none" stroke="black" points="104.5,-428.5 133.5,-428.5 "/>
<text text-anchor="middle" x="119" y="-416.5" font-family="Helvetica,sans-Serif" font-size="10.00"> </text>
</a>
</g>
</g>
<!-- Node4&#45;&gt;Node2 -->
<g id="edge3" class="edge">
<title>Node4&#45;&gt;Node2</title>
<path fill="none" stroke="#404040" d="M112.38,-409.48C109.86,-399.02 106.84,-386.42 103.66,-373.23"/>
<polygon fill="none" stroke="#404040" points="103.66,-373.2 98.36,-368.3 100.85,-361.54 106.14,-366.43 103.66,-373.2"/>
<text text-anchor="middle" x="123.5" y="-383" font-family="Helvetica,sans-Serif" font-size="10.00"> #count</text>
</g>
</g>
</svg>
