<?xml version="1.0" encoding="UTF-8" standalone="no"?>
<!DOCTYPE svg PUBLIC "-//W3C//DTD SVG 1.1//EN"
 "http://www.w3.org/Graphics/SVG/1.1/DTD/svg11.dtd">
<!-- Generated by graphviz version 2.42.1 (0)
 -->
<!-- Title: Sortable_list&lt; Record &gt; Pages: 1 -->
<svg width="128pt" height="380pt"
 viewBox="0.00 0.00 128.00 380.00" xmlns="http://www.w3.org/2000/svg" xmlns:xlink="http://www.w3.org/1999/xlink">
<g id="graph0" class="graph" transform="scale(1 1) rotate(0) translate(4 376)">
<title>Sortable_list&lt; Record &gt;</title>
<polygon fill="white" stroke="transparent" points="-4,4 -4,-376 124,-376 124,4 -4,4"/>
<!-- Node1 -->
<g id="node1" class="node">
<title>Node1</title>
<g id="a_node1"><a xlink:title=" ">
<polygon fill="#bfbfbf" stroke="black" points="0,-0.5 0,-156.5 120,-156.5 120,-0.5 0,-0.5"/>
<text text-anchor="middle" x="60" y="-144.5" font-family="Helvetica,sans-Serif" font-size="10.00">Sortable_list&lt; Record &gt;</text>
<polyline fill="none" stroke="black" points="0,-137.5 120,-137.5 "/>
<text text-anchor="middle" x="60" y="-125.5" font-family="Helvetica,sans-Serif" font-size="10.00"> </text>
<polyline fill="none" stroke="black" points="0,-118.5 120,-118.5 "/>
<text text-anchor="start" x="8" y="-106.5" font-family="Helvetica,sans-Serif" font-size="10.00">+ insertion_sort()</text>
<text text-anchor="start" x="8" y="-95.5" font-family="Helvetica,sans-Serif" font-size="10.00">+ selection_sort()</text>
<text text-anchor="start" x="8" y="-84.5" font-family="Helvetica,sans-Serif" font-size="10.00">+ quick_sort()</text>
<text text-anchor="start" x="8" y="-73.5" font-family="Helvetica,sans-Serif" font-size="10.00">+ heap_sort()</text>
<text text-anchor="start" x="8" y="-62.5" font-family="Helvetica,sans-Serif" font-size="10.00">&#45; recursive_quick_sort()</text>
<text text-anchor="start" x="8" y="-51.5" font-family="Helvetica,sans-Serif" font-size="10.00">&#45; partition()</text>
<text text-anchor="start" x="8" y="-40.5" font-family="Helvetica,sans-Serif" font-size="10.00">&#45; insert_heap()</text>
<text text-anchor="start" x="8" y="-29.5" font-family="Helvetica,sans-Serif" font-size="10.00">&#45; build_heap()</text>
<text text-anchor="start" x="8" y="-18.5" font-family="Helvetica,sans-Serif" font-size="10.00">&#45; max_key()</text>
<text text-anchor="start" x="8" y="-7.5" font-family="Helvetica,sans-Serif" font-size="10.00">&#45; swap()</text>
</a>
</g>
</g>
<!-- Node2 -->
<g id="node2" class="node">
<title>Node2</title>
<g id="a_node2"><a xlink:href="classList.html" target="_top" xlink:title=" ">
<polygon fill="white" stroke="black" points="19.5,-193.5 19.5,-371.5 100.5,-371.5 100.5,-193.5 19.5,-193.5"/>
<text text-anchor="middle" x="60" y="-359.5" font-family="Helvetica,sans-Serif" font-size="10.00">List&lt; Record &gt;</text>
<polyline fill="none" stroke="black" points="19.5,-352.5 100.5,-352.5 "/>
<text text-anchor="start" x="27.5" y="-340.5" font-family="Helvetica,sans-Serif" font-size="10.00"># count</text>
<text text-anchor="start" x="27.5" y="-329.5" font-family="Helvetica,sans-Serif" font-size="10.00"># entry</text>
<polyline fill="none" stroke="black" points="19.5,-322.5 100.5,-322.5 "/>
<text text-anchor="start" x="27.5" y="-310.5" font-family="Helvetica,sans-Serif" font-size="10.00">+ ~List()</text>
<text text-anchor="start" x="27.5" y="-299.5" font-family="Helvetica,sans-Serif" font-size="10.00">+ List()</text>
<text text-anchor="start" x="27.5" y="-288.5" font-family="Helvetica,sans-Serif" font-size="10.00">+ List()</text>
<text text-anchor="start" x="27.5" y="-277.5" font-family="Helvetica,sans-Serif" font-size="10.00">+ full()</text>
<text text-anchor="start" x="27.5" y="-266.5" font-family="Helvetica,sans-Serif" font-size="10.00">+ size()</text>
<text text-anchor="start" x="27.5" y="-255.5" font-family="Helvetica,sans-Serif" font-size="10.00">+ print()</text>
<text text-anchor="start" x="27.5" y="-244.5" font-family="Helvetica,sans-Serif" font-size="10.00">+ traverse()</text>
<text text-anchor="start" x="27.5" y="-233.5" font-family="Helvetica,sans-Serif" font-size="10.00">+ retrieve()</text>
<text text-anchor="start" x="27.5" y="-222.5" font-family="Helvetica,sans-Serif" font-size="10.00">+ replace()</text>
<text text-anchor="start" x="27.5" y="-211.5" font-family="Helvetica,sans-Serif" font-size="10.00">+ remove()</text>
<text text-anchor="start" x="27.5" y="-200.5" font-family="Helvetica,sans-Serif" font-size="10.00">+ insert()</text>
</a>
</g>
</g>
<!-- Node2&#45;&gt;Node1 -->
<g id="edge1" class="edge">
<title>Node2&#45;&gt;Node1</title>
<path fill="none" stroke="midnightblue" d="M60,-183.41C60,-174.47 60,-165.49 60,-156.77"/>
<polygon fill="none" stroke="midnightblue" points="56.5,-183.49 60,-193.49 63.5,-183.49 56.5,-183.49"/>
</g>
</g>
</svg>
