<?xml version="1.0" encoding="UTF-8" standalone="no"?>
<!DOCTYPE svg PUBLIC "-//W3C//DTD SVG 1.1//EN"
 "http://www.w3.org/Graphics/SVG/1.1/DTD/svg11.dtd">
<!-- Generated by graphviz version 2.42.1 (0)
 -->
<!-- Title: List&lt; List_entry &gt; Pages: 1 -->
<svg width="117pt" height="281pt"
 viewBox="0.00 0.00 117.00 281.00" xmlns="http://www.w3.org/2000/svg" xmlns:xlink="http://www.w3.org/1999/xlink">
<g id="graph0" class="graph" transform="scale(1 1) rotate(0) translate(4 277)">
<title>List&lt; List_entry &gt;</title>
<polygon fill="white" stroke="transparent" points="-4,4 -4,-277 113,-277 113,4 -4,4"/>
<!-- Node1 -->
<g id="node1" class="node">
<title>Node1</title>
<g id="a_node1"><a xlink:title=" ">
<polygon fill="#bfbfbf" stroke="black" points="0,-0.5 0,-167.5 94,-167.5 94,-0.5 0,-0.5"/>
<text text-anchor="middle" x="47" y="-155.5" font-family="Helvetica,sans-Serif" font-size="10.00">List&lt; List_entry &gt;</text>
<polyline fill="none" stroke="black" points="0,-148.5 94,-148.5 "/>
<text text-anchor="middle" x="47" y="-136.5" font-family="Helvetica,sans-Serif" font-size="10.00"> </text>
<polyline fill="none" stroke="black" points="0,-129.5 94,-129.5 "/>
<text text-anchor="start" x="8" y="-117.5" font-family="Helvetica,sans-Serif" font-size="10.00">+ ~List()</text>
<text text-anchor="start" x="8" y="-106.5" font-family="Helvetica,sans-Serif" font-size="10.00">+ List()</text>
<text text-anchor="start" x="8" y="-95.5" font-family="Helvetica,sans-Serif" font-size="10.00">+ List()</text>
<text text-anchor="start" x="8" y="-84.5" font-family="Helvetica,sans-Serif" font-size="10.00">+ full()</text>
<text text-anchor="start" x="8" y="-73.5" font-family="Helvetica,sans-Serif" font-size="10.00">+ size()</text>
<text text-anchor="start" x="8" y="-62.5" font-family="Helvetica,sans-Serif" font-size="10.00">+ print()</text>
<text text-anchor="start" x="8" y="-51.5" font-family="Helvetica,sans-Serif" font-size="10.00">+ traverse()</text>
<text text-anchor="start" x="8" y="-40.5" font-family="Helvetica,sans-Serif" font-size="10.00">+ retrieve()</text>
<text text-anchor="start" x="8" y="-29.5" font-family="Helvetica,sans-Serif" font-size="10.00">+ replace()</text>
<text text-anchor="start" x="8" y="-18.5" font-family="Helvetica,sans-Serif" font-size="10.00">+ remove()</text>
<text text-anchor="start" x="8" y="-7.5" font-family="Helvetica,sans-Serif" font-size="10.00">+ insert()</text>
</a>
</g>
</g>
<!-- Node2 -->
<g id="node2" class="node">
<title>Node2</title>
<g id="a_node2"><a xlink:href="classint.html" target="_top" xlink:title=" ">
<polygon fill="white" stroke="black" points="1.5,-215.5 1.5,-272.5 30.5,-272.5 30.5,-215.5 1.5,-215.5"/>
<text text-anchor="middle" x="16" y="-260.5" font-family="Helvetica,sans-Serif" font-size="10.00">int</text>
<polyline fill="none" stroke="black" points="1.5,-253.5 30.5,-253.5 "/>
<text text-anchor="middle" x="16" y="-241.5" font-family="Helvetica,sans-Serif" font-size="10.00"> </text>
<polyline fill="none" stroke="black" points="1.5,-234.5 30.5,-234.5 "/>
<text text-anchor="middle" x="16" y="-222.5" font-family="Helvetica,sans-Serif" font-size="10.00"> </text>
</a>
</g>
</g>
<!-- Node2&#45;&gt;Node1 -->
<g id="edge1" class="edge">
<title>Node2&#45;&gt;Node1</title>
<path fill="none" stroke="#404040" d="M19.4,-215.38C20.68,-206.03 22.25,-195.53 24,-186 24.4,-183.84 24.81,-181.65 25.23,-179.45"/>
<polygon fill="none" stroke="#404040" points="25.26,-179.33 22.51,-172.66 27.6,-167.56 30.35,-174.23 25.26,-179.33"/>
<text text-anchor="middle" x="40.5" y="-189" font-family="Helvetica,sans-Serif" font-size="10.00"> #count</text>
</g>
<!-- Node3 -->
<g id="node3" class="node">
<title>Node3</title>
<g id="a_node3"><a xlink:title=" ">
<polygon fill="white" stroke="#bfbfbf" points="49,-215.5 49,-272.5 109,-272.5 109,-215.5 49,-215.5"/>
<text text-anchor="middle" x="79" y="-260.5" font-family="Helvetica,sans-Serif" font-size="10.00">List_entry</text>
<polyline fill="none" stroke="#bfbfbf" points="49,-253.5 109,-253.5 "/>
<text text-anchor="middle" x="79" y="-241.5" font-family="Helvetica,sans-Serif" font-size="10.00"> </text>
<polyline fill="none" stroke="#bfbfbf" points="49,-234.5 109,-234.5 "/>
<text text-anchor="middle" x="79" y="-222.5" font-family="Helvetica,sans-Serif" font-size="10.00"> </text>
</a>
</g>
</g>
<!-- Node3&#45;&gt;Node1 -->
<g id="edge2" class="edge">
<title>Node3&#45;&gt;Node1</title>
<path fill="none" stroke="#404040" d="M73.43,-215.48C71.33,-205.12 68.81,-192.67 66.17,-179.63"/>
<polygon fill="none" stroke="#404040" points="66.1,-179.3 60.99,-174.21 63.72,-167.54 68.83,-172.62 66.1,-179.3"/>
<text text-anchor="middle" x="84.5" y="-189" font-family="Helvetica,sans-Serif" font-size="10.00"> #entry</text>
</g>
</g>
</svg>
