<?xml version="1.0" encoding="UTF-8" standalone="no"?>
<!DOCTYPE svg PUBLIC "-//W3C//DTD SVG 1.1//EN"
 "http://www.w3.org/Graphics/SVG/1.1/DTD/svg11.dtd">
<!-- Generated by graphviz version 2.42.1 (0)
 -->
<!-- Title: Key Pages: 1 -->
<svg width="106pt" height="193pt"
 viewBox="0.00 0.00 105.50 193.00" xmlns="http://www.w3.org/2000/svg" xmlns:xlink="http://www.w3.org/1999/xlink">
<g id="graph0" class="graph" transform="scale(1 1) rotate(0) translate(4 189)">
<title>Key</title>
<polygon fill="white" stroke="transparent" points="-4,4 -4,-189 101.5,-189 101.5,4 -4,4"/>
<!-- Node1 -->
<g id="node1" class="node">
<title>Node1</title>
<g id="a_node1"><a xlink:title=" ">
<polygon fill="#bfbfbf" stroke="black" points="0,-0.5 0,-68.5 65,-68.5 65,-0.5 0,-0.5"/>
<text text-anchor="middle" x="32.5" y="-56.5" font-family="Helvetica,sans-Serif" font-size="10.00">Key</text>
<polyline fill="none" stroke="black" points="0,-49.5 65,-49.5 "/>
<text text-anchor="middle" x="32.5" y="-37.5" font-family="Helvetica,sans-Serif" font-size="10.00"> </text>
<polyline fill="none" stroke="black" points="0,-30.5 65,-30.5 "/>
<text text-anchor="start" x="8" y="-18.5" font-family="Helvetica,sans-Serif" font-size="10.00">+ Key()</text>
<text text-anchor="start" x="8" y="-7.5" font-family="Helvetica,sans-Serif" font-size="10.00">+ the_key()</text>
</a>
</g>
</g>
<!-- Node2 -->
<g id="node2" class="node">
<title>Node2</title>
<g id="a_node2"><a xlink:href="classint.html" target="_top" xlink:title=" ">
<polygon fill="white" stroke="black" points="18,-127.5 18,-184.5 47,-184.5 47,-127.5 18,-127.5"/>
<text text-anchor="middle" x="32.5" y="-172.5" font-family="Helvetica,sans-Serif" font-size="10.00">int</text>
<polyline fill="none" stroke="black" points="18,-165.5 47,-165.5 "/>
<text text-anchor="middle" x="32.5" y="-153.5" font-family="Helvetica,sans-Serif" font-size="10.00"> </text>
<polyline fill="none" stroke="black" points="18,-146.5 47,-146.5 "/>
<text text-anchor="middle" x="32.5" y="-134.5" font-family="Helvetica,sans-Serif" font-size="10.00"> </text>
</a>
</g>
</g>
<!-- Node2&#45;&gt;Node1 -->
<g id="edge1" class="edge">
<title>Node2&#45;&gt;Node1</title>
<path fill="none" stroke="#404040" d="M32.5,-127.28C32.5,-113.47 32.5,-96.4 32.5,-80.75"/>
<polygon fill="none" stroke="#404040" points="32.5,-80.59 28.5,-74.59 32.5,-68.59 36.5,-74.59 32.5,-80.59"/>
<text text-anchor="middle" x="65" y="-101" font-family="Helvetica,sans-Serif" font-size="10.00"> +comparisons</text>
<text text-anchor="middle" x="65" y="-90" font-family="Helvetica,sans-Serif" font-size="10.00">&#45;key</text>
</g>
</g>
</svg>
